PathFileType	3	(X/Y/Z)	D:\minhoCalibration\240510\subject5_KPNP\preferred\preferred07.trc
DataRate	CameraRate	NumFrames	NumMarkers	Units	OrigDataRate	OrigDataStartFrame	OrigNumFrames
200.0	200.0	33	10	mm	200.0	263	131	
Frame#	Time	Left_Ankle_Outer1			Left_Ankle_Inner1			Left_Knee_Outer1			Left_Knee_Inner1			Left_Wrist1			Right_Wrist1			Right_Knee_Inner1			Right_Knee_Outer1			Right_Ankle_Inner1			Right_Ankle_Outer1			
		X1	Y1	Z1	X2	Y2	Z2	X3	Y3	Z3	X4	Y4	Z4	X5	Y5	Z5	X6	Y6	Z6	X7	Y7	Z7	X8	Y8	Z8	X9	Y9	Z9	X10	Y10	Z10	
263	1.305	-353.42438	80.183632	-643.21326	-386.56204	99.342064	-605.17365	-172.07835	526.23645	-609.68311	-218.96727	515.96613	-527.49054	-251.02171	963.70569	-784.76294	-321.08667	1185.7938	-545.05408	-286.0643	930.49884	-86.493149	-274.17075	1023.0933	-101.51868	-742.36438	925.1839	11.928987	-731.06207	1020.7192	-18.304813
264	1.31	-353.91293	79.755638	-642.94299	-387.1756	98.728317	-604.61261	-172.63963	525.86322	-609.43243	-219.77124	515.3761	-527.17688	-253.62408	963.28632	-785.89392	-318.48837	1186.0931	-544.99341	-283.21976	936.52917	-86.097755	-270.828	1028.552	-102.96885	-728.73883	937.68744	53.69873	-719.42798	1032.535	19.872364
265	1.315	-354.4126	79.589249	-642.61096	-387.50662	98.557037	-604.3645	-172.92781	525.87756	-609.23352	-220.24637	515.14954	-526.93762	-256.67313	961.94586	-786.70581	-316.59613	1186.0498	-544.94165	-281.27939	942.82733	-86.520714	-269.017	1034.0142	-104.64397	-713.27765	950.13672	94.674095	-705.47186	1043.7266	58.554031
266	1.32	-354.97687	79.37738	-642.12433	-388.00333	98.374229	-603.58252	-173.66174	525.54388	-608.5957	-220.51414	514.93738	-526.81854	-258.84528	961.55371	-787.35059	-315.27167	1186.4052	-545.06049	-280.68616	949.09265	-87.904343	-268.98022	1039.1547	-106.54577	-694.95813	960.94543	133.93332	-688.97742	1054.1219	97.462997
267	1.325	-355.39932	79.338341	-641.63702	-388.21759	98.248268	-602.59631	-173.62457	525.62244	-608.70801	-220.86603	514.96344	-526.60803	-260.82523	960.91437	-787.87518	-314.07245	1186.5778	-545.32501	-282.11691	954.78827	-89.50531	-270.49399	1044.1215	-108.36385	-671.48187	970.88159	173.1519	-669.51959	1063.7319	136.04054
268	1.33	-355.77725	79.268227	-641.30328	-388.26437	98.105431	-602.85455	-174.39539	525.58978	-608.19543	-221.0002	514.95154	-526.5072	-263.56619	960.2713	-786.69574	-313.47867	1186.7712	-545.49548	-285.29291	960.40155	-91.148819	-273.80261	1048.9454	-109.84931	-645.81897	979.94257	211.63573	-647.22437	1072.4412	173.71327
269	1.335	-356.23804	79.235069	-640.89087	-388.2912	98.443817	-601.37305	-174.81718	525.7641	-608.17175	-221.15779	515.15381	-526.3844	-265.21851	959.89221	-786.27448	-313.3432	1187.0239	-545.61261	-289.94812	965.58734	-92.386101	-278.50287	1053.5607	-111.33125	-615.75922	988.18945	246.8418	-621.69922	1079.9944	209.62723
270	1.34	-356.55627	79.274277	-640.57239	-388.59976	98.2677	-601.09839	-174.90474	526.16034	-608.70996	-221.28813	515.27393	-526.28564	-266.08661	959.70129	-786.20715	-313.87015	1186.9617	-545.46442	-295.93301	970.67963	-93.051826	-284.62051	1058.0857	-112.37923	-582.62164	994.38593	279.64008	-593.01367	1086.1641	243.00925
271	1.345	-356.92755	79.206841	-640.21448	-388.71414	98.115578	-600.64471	-175.5183	526.34357	-608.8324	-221.31746	515.37335	-526.23596	-266.82816	959.62109	-785.3858	-314.11285	1187.7546	-545.30347	-303.02646	975.96704	-92.315926	-291.68744	1062.6624	-113.16924	-545.53967	998.73285	306.90576	-561.58661	1090.4318	272.67316
272	1.35	-357.36749	79.125381	-639.97809	-389.36655	97.717407	-600.05713	-176.19478	526.59003	-609.01398	-221.36797	515.46552	-526.09381	-267.58679	959.5744	-783.7923	-315.10971	1188.0121	-544.6712	-310.50992	982.15295	-91.240746	-298.51715	1068.2095	-114.01161	-505.50668	1001.1878	329.81085	-527.53943	1091.9563	297.66953
273	1.355	-357.72089	78.984558	-639.7558	-389.40216	97.20723	-600.59082	-177.02245	526.74323	-609.18347	-221.43571	515.39398	-525.94879	-268.5661	959.58197	-781.13373	-316.23129	1188.5231	-544.19519	-317.79694	989.01764	-89.697464	-306.23077	1075.0615	-114.48289	-463.75638	1001.7501	343.08521	-491.81006	1091.0991	317.8942
274	1.36	-358.23962	78.7911	-639.47327	-389.22559	97.367722	-599.96143	-177.90503	526.98151	-609.28485	-221.60222	515.37476	-525.60797	-268.19913	959.98645	-779.24286	-317.1936	1188.8064	-542.14191	-323.94983	996.46985	-88.559204	-312.64896	1083.1083	-114.27641	-438.23462	998.67603	347.66428	-465.82968	1090.1011	325.3768
275	1.365	-358.68143	78.644371	-639.22473	-389.84784	97.017769	-599.38635	-179.086	527.13452	-609.26086	-221.53749	515.26654	-525.1781	-268.0636	960.19525	-776.2428	-318.54312	1189.9473	-539.69189	-326.33966	1003.8022	-86.764687	-316.66876	1091.6263	-112.34373	-425.84494	995.10498	347.72275	-458.56421	1087.1517	325.92804
276	1.37	-359.21161	78.644707	-639.04736	-390.10153	96.89994	-598.71838	-180.34979	527.3147	-608.95837	-221.83104	515.02869	-524.36279	-267.85519	960.28625	-772.85547	-319.45865	1190.6221	-536.99329	-323.7182	1011.3871	-85.273598	-316.63605	1099.3004	-110.26788	-422.06158	991.12897	348.85013	-457.64536	1081.5173	328.14255
277	1.375	-359.6456	78.53656	-638.76379	-390.5528	96.597244	-598.5177	-181.78839	527.5788	-608.22424	-222.24402	514.9212	-523.28619	-268.11026	960.21515	-769.16711	-320.73068	1190.7389	-536.45282	-318.76468	1016.9359	-82.794647	-317.21399	1103.9075	-107.43936	-423.02756	987.52429	347.0936	-462.13754	1078.4014	328.52441
278	1.38	-360.07712	78.429047	-638.35187	-391.14297	96.613083	-597.2619	-183.24759	527.79858	-607.02112	-223.18887	514.92798	-521.7691	-267.51892	960.30225	-766.9491	-322.78336	1191.4731	-533.83044	-314.92404	1019.8918	-81.829765	-318.8829	1106.1912	-105.6032	-423.24719	988.32587	345.95541	-468.73093	1075.8218	328.86795
279	1.385	-360.34995	78.473251	-638.11816	-391.22607	96.33036	-597.44043	-184.6348	528.06549	-605.33612	-224.3945	514.95392	-520.02332	-266.88501	960.73193	-764.66876	-324.35129	1191.139	-531.93256	-313.2547	1021.334	-81.236824	-320.78799	1107.4231	-104.61511	-427.34583	988.08801	350.69043	-474.5741	1074.5264	329.74695
280	1.39	-360.61832	78.418884	-637.75031	-391.88196	96.375916	-596.29102	-186.09218	528.34741	-603.19067	-226.10797	514.97095	-518.03784	-266.03592	960.95575	-762.67908	-326.5863	1191.0344	-530.70789	-314.18091	1022.2784	-80.838898	-322.0285	1108.0925	-103.33197	-430.83188	988.25061	349.20935	-478.90607	1074.3682	331.14902
281	1.395	-360.78455	78.253586	-637.31366	-392.16266	95.916931	-596.10303	-187.68073	528.59381	-600.66364	-227.96988	515.11346	-516.03967	-264.73898	961.4317	-760.71381	-328.34631	1192.3877	-529.03455	-317.44577	1022.7947	-80.360573	-322.62817	1108.1672	-102.59291	-434.9259	987.82129	349.4256	-482.10614	1073.9771	332.17331
282	1.4	-360.90768	78.290955	-637.16449	-392.43173	95.883797	-595.95148	-189.23927	529.06836	-598.11047	-230.39577	515.20966	-513.94409	-263.99371	961.48407	-757.96985	-330.33679	1193.4141	-529.47955	-322.38779	1023.0151	-79.435226	-324.13998	1107.7686	-102.22464	-438.13092	986.84644	351.68927	-485.72418	1072.3114	332.72491
283	1.405	-361.10583	78.349007	-636.92395	-392.80435	95.050629	-596.7099	-190.92879	529.48279	-595.51715	-233.3326	515.38312	-511.81686	-263.0697	961.65631	-755.23212	-332.1778	1195.2504	-529.21771	-328.65289	1023.2283	-78.714828	-326.80322	1107.6603	-101.87513	-439.17017	986.63434	353.28049	-489.69946	1069.9274	333.62775
284	1.41	-361.24509	78.271561	-636.76074	-393.34415	95.2584	-595.58673	-192.63345	530.05798	-592.95996	-236.26205	515.56403	-509.97736	-261.83035	961.22955	-752.99377	-333.93106	1195.8287	-530.47754	-336.47037	1023.3298	-78.393204	-331.61359	1107.9216	-101.12864	-439.62527	985.78937	352.80377	-493.12589	1067.2778	334.88431
285	1.415	-361.3848	78.13913	-636.58228	-393.65854	94.177147	-596.60181	-194.66014	530.49927	-590.33441	-239.5191	515.71185	-508.10367	-260.05453	961.40332	-750.88953	-335.50595	1197.5881	-530.12714	-341.83661	1024.0114	-79.074066	-337.69482	1109.3928	-100.5694	-439.53259	984.37311	353.09604	-496.01035	1064.557	336.23172
286	1.42	-361.64069	77.984406	-636.38007	-394.09192	94.178383	-595.76947	-196.96204	530.64972	-587.40839	-242.7626	515.77917	-506.59735	-259.21579	960.53552	-748.04767	-336.84268	1199.5875	-528.11835	-347.22766	1024.6024	-78.804092	-345.93634	1111.0573	-99.887657	-440.58673	982.77124	350.95938	-498.57104	1061.5063	337.47455
287	1.425	-361.94119	77.74575	-636.22119	-394.75702	93.170547	-596.5022	-198.33319	531.13489	-585.56055	-245.93503	515.96533	-505.17136	-257.99655	959.91321	-745.48352	-338.79373	1198.9548	-530.49182	-351.53421	1025.4436	-77.820488	-355.19821	1112.1788	-99.246178	-439.39047	982.59106	356.32303	-501.02884	1058.1079	338.54382
288	1.43	-362.28674	77.416832	-635.86383	-395.92523	92.524796	-595.88867	-200.06416	531.28674	-583.5249	-249.01938	516.08923	-504.06592	-256.78503	959.31464	-742.86188	-339.89825	1201.1805	-528.51971	-354.69196	1026.575	-76.260849	-364.4429	1112.8368	-98.715172	-439.71399	980.89777	354.94742	-503.46463	1054.4459	339.53967
289	1.435	-362.60287	77.280251	-635.60071	-396.3125	92.259888	-595.79681	-201.56229	531.3515	-581.77234	-251.85194	516.17828	-503.1727	-255.48643	958.69202	-740.48865	-341.62622	1201.2185	-529.48468	-356.96201	1028.0529	-74.800667	-372.83295	1113.0627	-98.48362	-439.54996	979.19202	355.29422	-505.80008	1050.5138	340.46014
290	1.44	-363.03409	77.015724	-635.30756	-396.76596	91.969963	-595.34674	-202.9335	531.34515	-580.30847	-254.16669	516.27856	-502.65546	-254.02332	958.64771	-737.96503	-343.5397	1201.8297	-529.16779	-358.94458	1029.552	-73.659431	-380.48557	1112.4291	-98.274445	-439.71817	977.18671	355.29712	-508.35062	1046.5135	341.29947
291	1.445	-363.54501	76.826607	-634.99939	-397.15701	91.694153	-595.24792	-204.48035	531.06702	-578.95764	-256.43195	516.19995	-502.04272	-252.59152	958.25128	-735.74829	-345.22919	1200.7429	-529.84314	-361.27826	1030.4717	-72.862343	-387.44943	1111.3939	-98.070084	-440.48114	975.13239	355.84052	-511.12616	1042.3922	341.84705
292	1.45	-363.92981	76.621368	-634.77344	-397.64902	90.825592	-595.89252	-205.51321	530.93573	-578.21979	-258.13849	516.11682	-501.83319	-251.10295	957.79187	-733.78607	-346.72046	1201.171	-530.68207	-363.98978	1030.3597	-72.554291	-393.21069	1110.098	-97.982635	-441.92694	972.66138	355.73022	-513.89008	1038.1239	342.19202
293	1.455	-364.19037	76.462715	-634.57471	-398.57785	90.736465	-594.64819	-206.2766	531.0108	-577.84015	-259.68204	515.94513	-501.49893	-249.60614	957.94031	-731.56207	-348.21143	1201.343	-529.0896	-367.00293	1029.4336	-72.396225	-398.09741	1108.5049	-97.791145	-444.96738	968.84113	351.95724	-517.46338	1033.7538	342.25174
294	1.46	-364.32849	76.412445	-634.54193	-398.58072	90.624794	-594.72278	-207.12813	530.78662	-577.55237	-260.72461	515.67438	-501.43869	-248.07045	957.98651	-729.64984	-350.4357	1201.0714	-527.92865	-369.97345	1027.998	-72.297592	-402.07932	1106.7454	-97.541267	-447.36108	966.80737	354.24097	-521.34503	1029.1776	342.0119
295	1.465	-364.31866	76.150391	-634.52222	-398.73022	90.207321	-595.1897	-207.7966	530.58636	-577.30804	-261.7121	515.39154	-501.24341	-246.52112	958.33258	-727.81683	-352.3931	1200.0925	-529.25427	-372.67987	1026.3719	-72.16806	-406.22955	1104.6615	-97.049866	-450.3642	963.30969	354.90729	-525.60736	1024.1075	341.51859
